<svg xmlns="http://www.w3.org/2000/svg" viewBox="0 0 512 512">
  <rect x="8" y="8" width="496" height="496" rx="118" fill="#32302f" stroke="rgba(235,219,178,0.16)" stroke-width="8"/>
  <g transform="translate(96 96) scale(1.25)">
    <path fill="#fffdf7" d="M184,112a8,8,0,0,1-8,8H112a8,8,0,0,1,0-16h64A8,8,0,0,1,184,112Zm-8,24H112a8,8,0,0,0,0,16h64a8,8,0,0,0,0-16Zm48-88V208a16,16,0,0,1-16,16H48a16,16,0,0,1-16-16V48A16,16,0,0,1,48,32H208A16,16,0,0,1,224,48ZM48,208H72V48H48Zm160,0V48H88V208H208Z"/>
  </g>
</svg>
